<?xml version="1.0" standalone="no"?>
<!DOCTYPE svg PUBLIC "-//W3C//DTD SVG 20010904//EN"
 "http://www.w3.org/TR/2001/REC-SVG-20010904/DTD/svg10.dtd">
<svg version="1.0" xmlns="http://www.w3.org/2000/svg"
 width="1536.000000pt" height="1024.000000pt" viewBox="0 0 1536.000000 1024.000000"
 preserveAspectRatio="xMidYMid meet">

<g transform="translate(0.000000,1024.000000) scale(0.100000,-0.100000)"
fill="#000000" stroke="none">
<path d="M2858 6473 c7 -3 16 -2 19 1 4 3 -2 6 -13 5 -11 0 -14 -3 -6 -6z"/>
<path d="M5168 6453 c12 -2 32 -2 45 0 12 2 2 4 -23 4 -25 0 -35 -2 -22 -4z"/>
<path d="M2980 6309 c156 -157 271 -264 323 -301 l32 -23 -25 35 c-38 55 -291
299 -331 320 -19 10 -60 40 -90 67 -29 26 11 -18 91 -98z"/>
<path d="M6257 6164 c7 -3 10 -11 7 -19 -4 -9 -40 -15 -130 -20 -68 -4 -126
-11 -129 -15 -3 -4 44 -11 103 -14 59 -4 143 -11 187 -17 44 -5 95 -9 113 -9
29 0 32 3 27 20 -6 18 0 19 82 23 l88 3 -101 2 c-77 2 -118 8 -174 27 -40 14
-76 25 -79 24 -3 0 -1 -3 6 -5z"/>
<path d="M6688 6103 c12 -2 30 -2 40 0 9 3 -1 5 -23 4 -22 0 -30 -2 -17 -4z"/>
<path d="M6793 6093 c15 -2 37 -2 50 0 12 2 0 4 -28 4 -27 0 -38 -2 -22 -4z"/>
<path d="M6558 6043 c6 -2 18 -2 25 0 6 3 1 5 -13 5 -14 0 -19 -2 -12 -5z"/>
<path d="M6608 6033 c7 -3 16 -2 19 1 4 3 -2 6 -13 5 -11 0 -14 -3 -6 -6z"/>
<path d="M4023 5919 c64 -42 78 -56 75 -73 -2 -12 -121 -313 -264 -670 -268
-672 -278 -693 -343 -718 -27 -10 -259 -37 -323 -38 l-36 0 39 101 c21 55 39
102 39 105 0 2 -141 4 -314 4 -242 0 -315 -3 -319 -12 -3 -7 -52 -131 -110
-275 -83 -206 -115 -275 -150 -320 -84 -108 -226 -232 -320 -279 -27 -14 -47
-27 -45 -30 3 -2 175 38 384 90 208 51 575 142 814 201 762 187 953 235 955
237 2 2 80 179 175 393 94 215 200 453 235 530 34 77 80 181 101 230 20 50 38
91 39 93 1 1 152 6 336 12 461 13 853 14 919 1 62 -12 104 -39 108 -67 1 -10
-22 -57 -50 -103 -80 -128 -72 -125 -371 -129 -246 -3 -248 -3 -238 17 14 26
14 26 -11 27 -28 0 -87 10 -148 25 -133 31 -321 53 -378 45 -26 -4 -62 -8 -80
-10 -32 -3 -35 -7 -93 -129 -86 -184 -580 -1299 -577 -1302 2 -1 43 17 93 42
247 121 531 204 870 253 131 20 113 25 -30 10 -49 -5 -91 -8 -93 -6 -9 9 211
438 240 469 19 19 51 40 73 46 27 7 193 11 493 11 374 0 458 3 481 14 15 8 77
70 137 138 136 153 162 184 147 175 -20 -12 -56 116 -50 178 7 72 25 101 117
197 63 66 76 84 62 89 -9 3 13 11 53 19 84 15 114 29 70 31 -17 1 -23 3 -12 6
9 2 17 10 17 17 0 8 29 43 65 79 36 37 65 75 65 86 0 11 8 22 18 24 9 3 -49 5
-130 6 -82 0 -148 3 -148 6 0 3 13 34 29 70 l29 64 -811 1 c-1005 0 -1617 8
-1722 21 -43 6 -102 19 -130 30 -27 10 -52 19 -55 19 -3 0 30 -23 73 -51z"/>
<path d="M7238 5963 c7 -3 16 -2 19 1 4 3 -2 6 -13 5 -11 0 -14 -3 -6 -6z"/>
<path d="M7188 5953 c6 -2 18 -2 25 0 6 3 1 5 -13 5 -14 0 -19 -2 -12 -5z"/>
<path d="M6818 5923 c7 -3 16 -2 19 1 4 3 -2 6 -13 5 -11 0 -14 -3 -6 -6z"/>
<path d="M3091 5816 c6 -6 151 -92 239 -141 41 -23 162 -92 269 -154 106 -61
196 -111 200 -111 4 0 43 89 87 197 43 109 81 201 82 205 2 5 -195 8 -439 8
-243 0 -440 -2 -438 -4z"/>
<path d="M8759 5783 c-12 -21 -35 -54 -51 -74 -15 -20 -28 -40 -28 -43 0 -3
41 -6 91 -6 77 0 110 6 206 36 127 39 173 63 197 100 l16 24 -204 0 -204 0
-23 -37z"/>
<path d="M7443 5553 c-12 -2 -24 -12 -28 -21 -4 -9 -52 -136 -106 -282 -55
-146 -107 -272 -115 -280 -11 -12 -51 -16 -177 -20 l-163 -5 25 -80 26 -80
164 -3 c294 -5 289 -9 459 435 67 175 122 324 122 331 0 9 -24 12 -92 11 -51
-1 -103 -4 -115 -6z"/>
<path d="M7900 5554 c-14 -2 -40 -7 -58 -10 -44 -7 -107 -65 -139 -128 -49
-97 -176 -450 -181 -504 -11 -118 22 -132 316 -132 123 0 234 5 256 11 48 13
118 77 139 126 49 114 166 436 176 485 15 70 3 102 -48 132 -31 18 -55 20
-235 22 -111 1 -212 0 -226 -2z m260 -169 c9 -11 -2 -51 -61 -207 -40 -106
-79 -203 -87 -215 -13 -22 -21 -23 -128 -23 -62 0 -115 4 -118 9 -7 10 -3 20
83 246 34 88 68 170 77 182 13 21 21 23 118 23 79 0 106 -4 116 -15z"/>
<path d="M8738 5553 c-17 -3 -25 -9 -22 -18 3 -7 -28 -58 -68 -113 -40 -54
-104 -143 -143 -197 -38 -54 -123 -171 -187 -259 -65 -89 -118 -167 -118 -174
0 -10 26 -12 112 -10 l113 3 50 68 49 67 137 0 136 0 7 -62 c3 -34 10 -66 14
-70 5 -5 56 -7 113 -6 l104 3 3 381 2 382 -22 6 c-25 6 -236 6 -280 -1z m74
-350 l-5 -133 -88 0 c-49 0 -89 2 -89 5 0 3 33 54 74 113 97 140 107 154 111
150 1 -2 0 -63 -3 -135z"/>
<path d="M9450 5551 c-63 -8 -104 -27 -141 -68 -36 -38 -51 -69 -116 -241
-121 -321 -131 -366 -93 -415 12 -15 38 -31 58 -37 20 -5 136 -10 258 -10
l220 0 55 28 c72 36 95 76 199 349 144 379 137 394 -195 399 -104 1 -215 -1
-245 -5z m243 -157 c22 -4 37 -12 37 -21 0 -23 -142 -397 -158 -415 -13 -15
-33 -18 -129 -18 -105 0 -113 1 -113 19 0 11 29 95 64 188 84 220 93 240 108
246 19 8 146 8 191 1z"/>
<path d="M10410 5552 c0 -4 9 -18 19 -32 14 -18 17 -29 10 -42 -5 -10 -43
-109 -85 -220 -41 -112 -97 -260 -125 -329 -27 -70 -49 -132 -49 -138 0 -16
214 -15 228 2 5 6 26 57 46 112 20 55 44 118 54 139 l16 39 19 -41 18 -42 145
0 c235 0 256 16 358 285 42 113 50 157 36 201 -22 65 -37 67 -382 71 -170 1
-308 -1 -308 -5z m428 -158 c12 -4 22 -11 22 -18 0 -26 -72 -202 -87 -213 -18
-14 -174 -17 -205 -5 -15 6 -12 18 24 112 22 58 47 111 56 118 16 12 148 17
190 6z"/>
<path d="M11433 5553 c-41 -3 -51 -7 -46 -19 3 -8 -3 -25 -14 -37 -17 -20
-133 -177 -332 -452 -35 -49 -89 -123 -118 -163 -80 -109 -84 -102 51 -102
l116 0 51 70 51 70 144 0 143 0 3 -67 3 -68 113 -3 112 -3 0 384 0 385 -31 6
c-32 6 -149 5 -246 -1z m52 -370 l-7 -113 -89 0 c-49 0 -89 3 -89 6 0 4 42 66
93 139 105 151 103 152 92 -32z"/>
<path d="M12002 5542 c-25 -25 -234 -586 -240 -644 -6 -62 14 -93 68 -108 26
-7 129 -10 279 -8 l238 3 49 30 c57 36 85 85 154 272 24 65 72 192 107 283 35
90 63 170 63 177 0 10 -27 13 -110 13 -101 0 -110 -2 -120 -21 -7 -11 -59
-145 -116 -297 -58 -151 -109 -282 -116 -289 -13 -16 -233 -19 -243 -3 -5 8
100 301 184 513 17 43 31 82 31 87 0 6 -44 10 -105 10 -87 0 -108 -3 -123 -18z"/>
<path d="M12808 5553 c-16 -4 -16 -7 -3 -27 18 -27 25 -5 -139 -434 -64 -167
-116 -305 -116 -308 0 -7 555 -4 565 4 6 4 16 26 23 48 28 96 17 104 -154 104
-87 0 -134 4 -134 11 0 5 28 83 61 172 140 368 159 420 153 428 -5 9 -224 11
-256 2z"/>
<path d="M13568 5550 c-122 -12 -164 -57 -238 -255 -22 -60 -60 -159 -83 -220
-34 -89 -41 -123 -42 -179 0 -64 2 -70 28 -90 27 -20 43 -21 250 -24 249 -4
305 4 358 48 49 40 85 113 174 355 88 239 96 288 55 330 -18 18 -44 28 -85 35
-66 11 -312 11 -417 0z m275 -169 c6 -6 -4 -44 -31 -113 -23 -57 -55 -140 -71
-186 -17 -45 -37 -96 -46 -112 l-16 -30 -113 0 c-82 0 -115 4 -119 13 -6 16
149 428 164 438 18 11 220 2 232 -10z"/>
<path d="M2358 5463 c7 -3 16 -2 19 1 4 3 -2 6 -13 5 -11 0 -14 -3 -6 -6z"/>
<path d="M2288 5453 c6 -2 18 -2 25 0 6 3 1 5 -13 5 -14 0 -19 -2 -12 -5z"/>
<path d="M2125 5435 c-49 -7 -110 -14 -135 -15 -39 -2 -42 -3 -20 -11 16 -5 3
-6 -40 -3 -46 3 -61 2 -50 -5 10 -7 -17 -9 -90 -6 -58 3 -100 3 -95 0 9 -4
272 -47 463 -75 46 -7 80 -16 75 -20 -4 -4 -117 -49 -250 -101 -133 -51 -240
-95 -238 -97 6 -6 280 19 370 34 50 8 234 44 410 79 443 89 637 111 798 89 57
-8 52 -24 -8 -24 -24 0 -76 -6 -117 -14 -70 -14 -122 -31 -328 -112 -144 -56
-221 -73 -380 -84 -235 -17 -371 -63 -458 -153 l-44 -45 184 -6 c329 -11 438
-18 438 -27 0 -5 -19 -9 -43 -9 -23 0 -110 -11 -192 -25 -279 -47 -438 -44
-551 11 -75 35 -82 48 -48 79 15 14 50 39 78 56 l51 30 -110 -5 c-149 -7 -346
-52 -650 -149 l-100 -32 111 -7 c205 -13 341 -43 714 -158 181 -55 255 -70
356 -70 47 0 84 -4 84 -10 0 -13 -110 -86 -162 -109 -54 -22 -217 -66 -368
-97 l-115 -24 225 5 c124 3 277 10 342 16 l116 12 53 126 c28 69 62 150 75
179 l23 52 377 0 c363 0 379 -1 421 -21 24 -11 43 -25 43 -30 0 -4 -11 -34
-25 -65 -14 -32 -24 -58 -22 -60 1 -1 36 1 77 7 92 11 95 14 151 157 23 59 84
214 135 345 52 130 94 243 94 250 0 7 -39 36 -88 65 l-87 51 -160 6 c-170 6
-708 16 -992 19 -94 0 -169 4 -166 9 5 9 -21 8 -132 -8z m1503 -261 c45 -29
18 -117 -51 -168 -27 -20 -41 -21 -235 -21 -237 0 -482 8 -482 15 1 9 283 133
358 157 40 13 104 27 140 32 88 12 240 4 270 -15z"/>
<path d="M10177 4381 c-14 -17 -28 -27 -32 -23 -4 4 -5 3 -4 -3 2 -5 -3 -21
-10 -35 -16 -30 -8 -21 43 43 42 51 44 66 3 18z"/>
<path d="M10234 4396 c-3 -7 -4 -38 -2 -67 l3 -54 5 68 c5 67 4 79 -6 53z"/>
<path d="M8781 4184 c0 -11 3 -14 6 -6 3 7 2 16 -1 19 -3 4 -6 -2 -5 -13z"/>
<path d="M9899 4173 c-13 -16 -12 -17 4 -4 16 13 21 21 13 21 -2 0 -10 -8 -17
-17z"/>
<path d="M10232 4140 c0 -14 2 -19 5 -12 2 6 2 18 0 25 -3 6 -5 1 -5 -13z"/>
</g>
</svg>
